<?xml version="1.0" standalone="no"?>
<!DOCTYPE svg PUBLIC "-//W3C//DTD SVG 20010904//EN"
 "http://www.w3.org/TR/2001/REC-SVG-20010904/DTD/svg10.dtd">
<svg version="1.0" xmlns="http://www.w3.org/2000/svg"
 width="314.000000pt" height="52.000000pt" viewBox="0 0 314.000000 52.000000"
 preserveAspectRatio="xMidYMid meet">

<g transform="translate(0.000000,52.000000) scale(0.100000,-0.100000)"
fill="#FFF" stroke="none">
<path d="M380 439 c0 -59 1 -62 49 -112 l50 -52 50 50 c51 49 51 50 51 112 l0
63 -100 0 -100 0 0 -61z m158 -13 c3 -20 -4 -36 -24 -57 l-28 -29 -28 27 c-20
19 -28 37 -28 60 l0 34 53 -3 c49 -3 52 -5 55 -32z"/>
<path d="M970 430 c0 -5 9 -10 20 -10 11 0 20 5 20 10 0 6 -9 10 -20 10 -11 0
-20 -4 -20 -10z"/>
<path d="M1030 430 c0 -5 7 -10 16 -10 23 0 11 -24 -14 -28 -32 -5 -27 -22 7
-22 26 0 41 -14 41 -41 0 -5 -11 -9 -25 -9 -14 0 -25 -4 -25 -10 0 -5 11 -10
25 -10 16 0 25 -6 25 -15 0 -9 -9 -15 -25 -15 -14 0 -25 -4 -25 -10 0 -5 5
-10 10 -10 6 0 16 -11 22 -25 11 -24 13 -25 123 -25 73 0 115 4 123 12 16 16
16 200 0 216 -15 15 -278 17 -278 2z m190 -110 c0 -47 -2 -50 -25 -50 -23 0
-25 3 -25 50 0 47 2 50 25 50 23 0 25 -3 25 -50z"/>
<path d="M1340 320 l0 -120 115 0 115 0 0 35 0 35 -66 0 c-48 0 -65 3 -62 13
3 6 21 13 41 15 28 2 37 8 37 22 0 14 -9 20 -37 22 -20 2 -38 9 -41 16 -3 9
14 12 62 12 l66 0 0 35 0 35 -115 0 -115 0 0 -120z"/>
<path d="M1600 352 c0 -86 1 -89 33 -120 29 -28 40 -32 88 -32 50 0 58 3 92
38 37 37 37 39 37 120 l0 82 -50 0 -50 0 0 -74 c0 -49 -4 -77 -13 -85 -25 -20
-37 9 -37 86 l0 73 -50 0 -50 0 0 -88z"/>
<path d="M2040 320 l0 -120 115 0 115 0 0 35 0 35 -65 0 c-51 0 -65 3 -65 15
0 11 11 15 40 15 33 0 40 3 40 20 0 17 -7 20 -40 20 -29 0 -40 4 -40 15 0 12
14 15 65 15 l65 0 0 35 0 35 -115 0 -115 0 0 -120z"/>
<path d="M2290 320 l0 -120 185 0 185 0 0 120 0 120 -50 0 -50 0 0 -85 c0 -69
-3 -85 -15 -85 -11 0 -15 12 -15 50 l0 50 -50 0 -50 0 0 -50 c0 -43 -3 -50
-20 -50 -18 0 -20 7 -20 85 l0 85 -50 0 -50 0 0 -120z"/>
<path d="M2690 320 l0 -120 125 0 125 0 0 120 0 120 -125 0 -125 0 0 -120z
m150 0 c0 -47 -2 -50 -25 -50 -23 0 -25 3 -25 50 0 47 2 50 25 50 23 0 25 -3
25 -50z"/>
<path d="M930 380 c0 -5 11 -10 25 -10 14 0 25 5 25 10 0 6 -11 10 -25 10 -14
0 -25 -4 -25 -10z"/>
<path d="M230 245 l0 -95 63 0 c62 0 64 1 110 48 l47 48 -48 47 c-47 46 -49
47 -110 47 l-62 0 0 -95z m133 27 l27 -28 -29 -28 c-21 -20 -37 -27 -57 -24
-27 3 -29 6 -32 56 l-3 52 34 0 c23 0 41 -8 60 -28z"/>
<path d="M562 297 c-23 -23 -42 -47 -42 -52 0 -5 19 -29 42 -52 41 -42 43 -43
110 -43 l68 0 0 95 0 95 -68 0 c-67 0 -69 -1 -110 -43z m128 -52 c0 -53 -1
-55 -27 -55 -16 0 -39 11 -55 27 l-28 27 27 28 c17 18 37 28 55 28 27 0 28 -1
28 -55z"/>
<path d="M980 330 c0 -5 7 -10 15 -10 8 0 15 5 15 10 0 6 -7 10 -15 10 -8 0
-15 -4 -15 -10z"/>
<path d="M930 280 c0 -5 18 -10 40 -10 22 0 40 5 40 10 0 6 -18 10 -40 10 -22
0 -40 -4 -40 -10z"/>
<path d="M970 230 c0 -5 9 -10 20 -10 11 0 20 5 20 10 0 6 -9 10 -20 10 -11 0
-20 -4 -20 -10z"/>
<path d="M1020 210 c0 -5 5 -10 10 -10 6 0 10 5 10 10 0 6 -4 10 -10 10 -5 0
-10 -4 -10 -10z"/>
<path d="M427 162 c-45 -46 -47 -50 -47 -105 l0 -57 100 0 100 0 0 58 c0 56
-2 59 -48 105 -26 26 -50 47 -53 47 -2 0 -26 -22 -52 -48z m113 -94 c0 -27 -1
-28 -55 -28 -53 0 -55 1 -55 27 0 16 11 39 27 55 l27 28 28 -27 c18 -17 28
-37 28 -55z"/>
<path d="M1035 117 c-13 -10 -16 -21 -11 -41 6 -24 11 -27 39 -24 24 2 33 8
35 26 2 14 -2 22 -12 22 -20 0 -29 -17 -14 -24 7 -3 4 -5 -7 -3 -27 3 -25 31
3 35 12 2 22 8 22 13 0 14 -33 11 -55 -4z"/>
<path d="M1315 100 c-22 -43 -19 -50 25 -50 22 0 40 2 40 5 0 12 -35 75 -42
75 -4 0 -14 -13 -23 -30z m30 -20 c3 -5 1 -10 -4 -10 -6 0 -11 5 -11 10 0 6 2
10 4 10 3 0 8 -4 11 -10z"/>
<path d="M1576 123 c-10 -10 -7 -73 4 -73 6 0 10 8 10 18 0 12 8 17 25 17 17
0 25 -5 25 -17 0 -10 5 -18 10 -18 11 0 14 63 3 73 -3 4 -13 2 -20 -5 -11 -9
-19 -9 -33 0 -10 6 -21 8 -24 5z"/>
<path d="M1847 123 c-4 -3 -7 -21 -7 -40 0 -32 1 -33 41 -33 24 0 38 4 34 10
-3 6 -17 10 -31 10 -33 0 -29 34 4 38 12 2 22 8 22 13 0 10 -53 12 -63 2z"/>
<path d="M2107 123 c-15 -15 -7 -43 13 -43 27 0 25 -17 -2 -23 -13 -3 -7 -4
12 -4 42 2 47 25 10 44 l-25 13 28 0 c15 0 27 5 27 10 0 11 -53 14 -63 3z"/>
<path d="M1870 90 c0 -5 9 -10 20 -10 11 0 20 5 20 10 0 6 -9 10 -20 10 -11 0
-20 -4 -20 -10z"/>
</g>
</svg>
